<svg width="334" height="334" viewBox="0 0 334 334" fill="none" xmlns="http://www.w3.org/2000/svg">
<circle cx="167" cy="167" r="103" fill="#102822"/>
<path fill-rule="evenodd" clip-rule="evenodd" d="M191 261C195.391 259.869 199.706 258.431 203.915 256.693C215.724 251.814 226.453 244.663 235.492 235.648C244.53 226.633 251.699 215.931 256.591 204.152C261.482 192.373 264 179.749 264 167C264 154.251 261.482 141.627 256.591 129.848C251.699 118.069 244.53 107.367 235.492 98.3521C226.453 89.3371 215.724 82.1861 203.915 77.3072C203.294 77.0508 202.671 76.801 202.046 76.5577C196.565 74.4246 191 78.73 191 84.6115V261Z" fill="url(#paint0_linear_565_5666)"/>
<path fill-rule="evenodd" clip-rule="evenodd" d="M147.559 150.727H71.3594C70.457 156.066 70 161.483 70 166.923C70 179.685 72.5149 192.322 77.3946 204.113C82.2821 215.903 89.4394 226.617 98.4631 235.641C107.487 244.665 118.203 251.823 129.995 256.707C141.779 261.591 154.417 264.104 167.181 264.104C173.656 264.104 180.099 263.458 186.415 262.182V178.006C185.744 178.041 185.069 178.059 184.39 178.059C167.017 178.059 152.334 166.542 147.559 150.727Z" fill="url(#paint1_linear_565_5666)"/>
<defs>
<linearGradient id="paint0_linear_565_5666" x1="264" y1="73" x2="150.931" y2="101.384" gradientUnits="userSpaceOnUse">
<stop stop-color="#6BFFDC"/>
<stop offset="0.505208" stop-color="#65FF91"/>
<stop offset="1" stop-color="#84ED62"/>
</linearGradient>
<linearGradient id="paint1_linear_565_5666" x1="186.415" y1="150.727" x2="53.3663" y2="239.047" gradientUnits="userSpaceOnUse">
<stop stop-color="#6BFFDC"/>
<stop offset="0.505208" stop-color="#65FF91"/>
<stop offset="1" stop-color="#84ED62"/>
</linearGradient>
</defs>
</svg>
